<?xml version="1.0" standalone="no"?>
<!DOCTYPE svg PUBLIC "-//W3C//DTD SVG 20010904//EN"
 "http://www.w3.org/TR/2001/REC-SVG-20010904/DTD/svg10.dtd">
<svg version="1.0" xmlns="http://www.w3.org/2000/svg"
 width="260.000000pt" height="260.000000pt" viewBox="0 0 260.000000 260.000000"
 preserveAspectRatio="xMidYMid meet">
<metadata>
Created by potrace 1.11, written by Peter Selinger 2001-2013
</metadata>
<g transform="translate(0.000000,260.000000) scale(0.100000,-0.100000)"
fill="#000000" stroke="none">
<path d="M0 1300 l0 -1300 1300 0 1300 0 0 1300 0 1300 -1300 0 -1300 0 0
-1300z m742 276 c62 -23 133 -87 166 -150 22 -44 26 -63 27 -142 0 -81 -3 -96
-30 -149 -21 -40 -46 -71 -79 -96 -72 -55 -136 -69 -309 -69 l-147 0 0 316 0
316 163 -4 c120 -4 174 -9 209 -22z m710 -5 c170 -82 228 -305 123 -471 -73
-116 -248 -167 -395 -116 -77 27 -162 113 -184 186 -18 61 -21 158 -6 212 24
85 118 181 204 208 56 17 205 6 258 -19z m636 -6 c117 -53 177 -153 176 -290
-2 -124 -67 -226 -179 -277 -45 -20 -68 -23 -217 -26 l-168 -4 0 317 0 317
163 -4 c152 -4 166 -6 225 -33z"/>
<path d="M520 1280 l0 -200 58 0 c77 0 123 14 155 47 85 90 74 267 -22 330
-28 19 -48 23 -112 23 l-79 0 0 -200z"/>
<path d="M1214 1462 c-58 -37 -79 -78 -83 -164 -2 -64 1 -85 19 -122 67 -139
280 -115 320 35 25 91 -4 199 -64 241 -44 32 -149 37 -192 10z"/>
<path d="M1840 1280 l0 -200 68 0 c118 1 179 45 202 146 14 62 5 128 -25 180
-33 56 -74 74 -169 74 l-76 0 0 -200z"/>
</g>
</svg>
