<svg width="669" height="645" viewBox="0 0 669 645" fill="none" xmlns="http://www.w3.org/2000/svg">
<path class="path" d="M132.5 633.5V470.142C132.5 461.233 121.729 456.771 115.429 463.071L54.5711 523.929C50.6658 527.834 44.3342 527.834 40.4289 523.929L-45.5711 437.929C-47.4464 436.054 -48.5 433.51 -48.5 430.858V50.6421C-48.5 47.99 -47.4464 45.4464 -45.5711 43.5711L-6.57107 4.57107C-2.66583 0.665825 3.66582 0.665823 7.57107 4.57107L22.0711 19.0711C23.9464 20.9464 25 23.49 25 26.1421V109.5C25 115.023 29.4772 119.5 35 119.5H94.3579C97.01 119.5 99.5536 118.446 101.429 116.571L180.929 37.0711C184.834 33.1658 191.166 33.1658 195.071 37.0711L321.571 163.571C323.446 165.446 325.99 166.5 328.642 166.5H482C487.523 166.5 492 162.023 492 156.5V83C492 77.4772 487.523 73 482 73H365.142C356.233 73 351.771 62.2286 358.071 55.9289L397.571 16.4289C399.446 14.5536 401.99 13.5 404.642 13.5H557.858C566.767 13.5 571.229 24.2714 564.929 30.5711L514.429 81.0711C512.554 82.9464 511.5 85.49 511.5 88.1421V177.5C511.5 183.023 515.977 187.5 521.5 187.5H647C652.523 187.5 657 191.977 657 197.5V308.858C657 317.767 646.229 322.229 639.929 315.929L599.071 275.071C592.771 268.771 582 273.233 582 282.142V418.358C582 427.267 571.229 431.729 564.929 425.429L501.929 362.429C500.054 360.554 497.51 359.5 494.858 359.5H339C333.477 359.5 329 355.023 329 349.5V281C329 275.477 324.523 271 319 271H177C171.477 271 167 266.523 167 261V162.642C167 159.99 168.054 157.446 169.929 155.571L198.929 126.571C202.834 122.666 209.166 122.666 213.071 126.571L263.571 177.071C265.446 178.946 266.5 181.49 266.5 184.142V479.858C266.5 488.767 255.729 493.229 249.429 486.929L135.429 372.929C133.554 371.054 131.01 370 128.358 370H72C66.4772 370 62 374.477 62 380V550C62 555.523 66.4772 560 72 560H158.358C161.01 560 163.554 558.946 165.429 557.071L203.429 519.071C207.334 515.166 213.666 515.166 217.571 519.071L278.803 580.303C280.017 581.517 280.017 583.483 278.803 584.697V584.697C276.846 586.654 278.232 590 281 590H361.5C367.023 590 371.5 585.523 371.5 580V497C371.5 491.477 375.977 487 381.5 487H452.358C455.01 487 457.554 485.946 459.429 484.071L481.929 461.571C488.229 455.271 483.767 444.5 474.858 444.5H334.5C328.977 444.5 324.5 448.977 324.5 454.5V521C324.5 526.523 328.977 531 334.5 531H501.858C504.51 531 507.054 529.946 508.929 528.071L560.929 476.071C564.834 472.166 571.166 472.166 575.071 476.071L632.071 533.071C633.946 534.946 636.49 536 639.142 536H657.5C663.023 536 667.5 531.523 667.5 526V440C667.5 434.477 663.023 430 657.5 430H621.5C615.977 430 611.5 425.523 611.5 420V129.5C611.5 123.977 607.023 119.5 601.5 119.5H353.642C350.99 119.5 348.446 118.446 346.571 116.571L314.071 84.0711C310.166 80.1658 303.834 80.1658 299.929 84.0711L96.0711 287.929C89.7714 294.229 79 289.767 79 280.858V203.5C79 197.977 74.5228 193.5 69 193.5H31C25.4772 193.5 21 197.977 21 203.5V585.62C21 588.412 22.1674 591.077 24.2198 592.97L76.1276 640.85C77.9745 642.554 80.3951 643.5 82.9078 643.5H122.5C128.023 643.5 132.5 639.023 132.5 633.5Z" stroke="#5B7234" stroke-width="3"/>
</svg>
